Coordinates
version=1
nRows=11
nColumns=26
inDegrees=yes

Units are S.I. units (second, meters, Newtons, ...)
If the header above contains a line with 'inDegrees', this indicates whether rotational values are in degrees (yes) or radians (no).

endheader
time	pelvis_tilt	pelvis_list	pelvis_rotation	pelvis_tx	pelvis_ty	pelvis_tz	hip_flexion_r	hip_adduction_r	hip_rotation_r	knee_angle_r	knee_angle_r_beta	hip_flexion_l	hip_adduction_l	hip_rotation_l	knee_angle_l	knee_angle_l_beta	lumbar_extension	lumbar_bending	lumbar_rotation	ankle_angle_r	subtalar_angle_r	mtp_angle_r	ankle_angle_l	subtalar_angle_l	mtp_angle_l
      0.66000000	     -5.66216401	      2.71442233	      5.60286145	      1.45062645	      0.77138257	     -0.30960254	     11.68797375	     -6.05103018	     -7.22918868	     56.36185615	      0.98369996	     20.81609581	      6.50389466	     -0.74009399	     21.74599700	      0.37953925	    -10.35637472	     -5.36880963	     -3.36502453	     -1.24447816	      1.41520424	      0.00000000	      2.61594968	    -11.46463524	      0.00000000
      0.67000000	     -5.92277112	      2.42371807	      5.79627723	      1.46388277	      0.77446897	     -0.31043240	     13.69700429	     -5.71604346	     -6.89853049	     55.81266429	      0.97411476	     19.23714390	      6.27044710	     -0.34200379	     20.31247177	      0.35451951	     -9.98186596	     -4.91145057	     -3.90462054	      0.48275023	      0.34399955	      0.00000000	      2.78826827	    -11.05069965	      0.00000000
      0.68000000	     -6.04145266	      2.49517657	      6.03213654	      1.47717846	      0.77759444	     -0.31152286	     15.42961179	     -5.92972034	     -6.85943143	     54.97783937	      0.95954431	     17.26202346	      6.44158184	      0.24653143	     18.41387698	      0.32138278	     -9.81335538	     -4.82737128	     -4.40908194	      1.72273089	     -1.14813869	      0.00000000	      2.57701016	    -10.48312417	      0.00000000
      0.69000000	     -6.32298597	      2.33152511	      6.25870631	      1.49025525	      0.78024186	     -0.31245983	     17.27753050	     -5.90124802	     -6.87010469	     53.79160404	      0.93884060	     15.66284638	      6.30964965	      0.62633557	     16.81030359	      0.29339515	     -9.44026300	     -4.49840338	     -4.82780968	      2.69384361	     -2.77110648	      0.00000000	      2.42815227	     -9.86156308	      0.00000000
      0.70000000	     -6.70170468	      2.19661820	      6.45285049	      1.50319663	      0.78238827	     -0.31332508	     19.14594771	     -5.99093412	     -6.99517966	     52.33058041	      0.91334093	     14.40702353	      6.16037156	      0.49263545	     15.67182935	      0.27352502	     -8.96872918	     -4.22310080	     -5.28177969	      3.83526679	     -3.94280435	      0.00000000	      2.51493516	     -9.50234746	      0.00000000
      0.71000000	     -6.69481016	      2.10970577	      6.71871192	      1.51607213	      0.78477659	     -0.31403152	     20.50905497	     -6.03576172	     -7.16208345	     50.56644977	      0.88255104	     12.42746957	      6.01072643	      0.89702240	     13.82797349	      0.24134367	     -9.06997617	     -4.02020103	     -5.76916607	      3.60826712	     -6.55505382	      0.00000000	      2.11697470	     -8.36859180	      0.00000000
      0.72000000	     -7.13154968	      2.07675266	      6.99380095	      1.52869006	      0.78609661	     -0.31478446	     22.31815344	     -6.31537124	     -7.42559841	     48.74357494	      0.85073587	     11.26274203	      5.94307288	      0.84946303	     12.63684855	      0.22055461	     -8.64192311	     -3.92178421	     -6.22995500	      4.37650134	     -7.55213204	      0.00000000	      2.02042749	     -7.50554581	      0.00000000
      0.73000000	     -7.51179892	      2.16147891	      7.31175260	      1.54133146	      0.78709758	     -0.31548360	     23.94279105	     -6.75291876	     -7.79900159	     46.64866990	      0.81417288	     10.06362800	      5.98249341	      0.74657355	     11.52600201	      0.20116668	     -8.31723920	     -3.98372101	     -6.70535195	      4.81689356	     -8.40958047	      0.00000000	      1.97244719	     -6.51812700	      0.00000000
      0.74000000	     -7.73610951	      2.29245107	      7.70008975	      1.55393270	      0.78788504	     -0.31607849	     25.25823315	     -7.23787535	     -8.29673160	     44.27643513	      0.77276957	      8.73508639	      6.02591678	      0.60054321	     10.47343790	      0.18279598	     -8.27992168	     -4.13474455	     -7.21589023	      4.99198078	     -9.02631006	      0.00000000	      2.09454258	     -5.24243035	      0.00000000
      0.75000000	     -7.97198508	      2.46882667	      8.09860059	      1.56646878	      0.78816945	     -0.31654699	     26.50547366	     -7.76248683	     -8.79457787	     41.73877877	      0.72847912	      7.54100617	      6.09982002	      0.34007327	      9.67420322	      0.16884670	     -8.21597616	     -4.37016508	     -7.67045277	      5.34388575	     -9.06422754	      0.00000000	      2.31486591	     -4.09520170	      0.00000000
      0.76000000	     -8.10132728	      2.68500361	      8.55899705	      1.57903418	      0.78817425	     -0.31699295	     27.50324583	     -8.33332453	     -9.40320124	     38.98621667	      0.68043784	      6.28130723	      6.18357407	      0.06481941	      8.99190875	      0.15693841	     -8.34902818	     -4.64115037	     -8.16136091	      5.76214938	     -8.57827386	      0.00000000	      2.78661747	     -2.68787264	      0.00000000
